<?xml version="1.0" encoding="UTF-8" standalone="no"?>
<!-- Created with Inkscape (http://www.inkscape.org/) -->

<svg
   width="32mm"
   height="32.000004mm"
   viewBox="0 0 120.94489 120.94489"
   version="1.1"
   id="svg1"
   xml:space="preserve"
   xmlns="http://www.w3.org/2000/svg"
   xmlns:svg="http://www.w3.org/2000/svg"><defs
     id="defs1" /><g
     id="layer1"
     transform="translate(992.51474,144.51572)"><circle
       style="fill:#ffffff;fill-opacity:1;stroke:none;stroke-width:0.468029"
       id="path27"
       cx="-932.04236"
       cy="-84.043274"
       r="60.472443" /><path
       style="fill:#000070;fill-opacity:1;stroke-width:0.216216"
       d="m -937.24454,-47.312746 c -12.10579,-0.544427 -27.42317,-5.366133 -30.70165,-9.664426 -0.53587,-0.70256 -0.90875,-30.399014 -0.38171,-30.399014 0.15653,0 15.87227,5.307894 28.24637,9.54008 7.12307,2.43624 6.7019,2.37448 9.55123,1.400374 1.18285,-0.404374 7.30736,-2.48712 13.61005,-4.628294 6.30272,-2.1412 13.05678,-4.437386 15.00904,-5.102613 1.9523,-0.665253 3.63262,-1.209547 3.73408,-1.209547 1.14134,0 -0.0787,30.018987 -1.2653,31.134267 -5.83611,5.4852 -23.19715,9.586026 -37.80211,8.929173 z m 50.19835,-24.536373 c -0.0981,-2.470667 0.69266,-3.46088 2.68328,-4.477413 0.53853,-0.275014 0.3745,-0.779307 0.20133,-0.886294 -0.68411,-0.4228 -0.14613,-2.052266 0.70077,-2.122346 0.74072,-0.06133 1.3595,-16.737947 0.68619,-18.492587 -0.13493,-0.351627 -1.62381,0.1416 -44.57072,14.761573 -5.88456,2.003227 -5.88456,2.003227 -8.43243,1.1384 -1.40133,-0.47568 -8.04517,-2.73152 -14.76413,-5.012986 -6.71891,-2.281467 -14.89189,-5.053467 -18.16216,-6.160027 -21.14312,-7.154161 -19.91816,-6.71984 -19.45944,-6.900031 0.1784,-0.0701 4.36216,-1.48413 9.29728,-3.14234 4.93515,-1.65822 17.21456,-5.78835 27.2876,-9.17803 18.31464,-6.16309 18.31464,-6.16309 24.97299,-3.92837 16.29808,5.47013 47.98557,16.13288 48.27994,16.24608 0.2208,0.08506 0.0656,0.229598 -0.48648,0.453198 -1.26032,0.51056 -1.28768,20.174106 -0.028,20.174106 0.78275,0 0.78275,0 0.6859,1.338774 -0.0645,0.89144 0.005,1.541946 0.20666,1.946933 0.40547,0.812853 1.88251,1.61912 1.78262,4.451387 -0.13494,3.828533 -3.30854,4.957813 -5.41512,4.993226 -2.10659,0.03547 -5.32011,-1.529333 -5.466,-5.203253 z"
       id="path1" /></g></svg>
